{
  "accessors": [
    {
      "bufferView": 2,
      "componentType": 5126,
      "count": 4966,
      "max": [
        1.4686739444732666,
        -0.0037529999390244484,
        1.807939052581787
      ],
      "min": [
        -1.3915610313415527,
        -4.063701152801514,
        -1.8079379796981812
      ],
      "type": "VEC3"
    },
    {
      "bufferView": 2,
      "byteOffset": 59592,
      "componentType": 5126,
      "count": 4966,
      "max": [
        0.9959442615509033,
        1.0,
        0.9994086623191833
      ],
      "min": [
        -0.99088454246521,
        -0.998894453048706,
        -0.9994086623191833
      ],
      "type": "VEC3"
    },
    {
      "bufferView": 1,
      "componentType": 5126,
      "count": 4966,
      "max": [
        0.9941409826278687,
        -0.005309999920427799
      ],
      "min": [
        0.020966000854969025,
        -0.9978640079498291
      ],
      "type": "VEC2"
    },
    {
      "bufferView": 0,
      "componentType": 5125,
      "count": 5046,
      "type": "SCALAR"
    },
    {
      "bufferView": 2,
      "byteOffset": 119184,
      "componentType": 5126,
      "count": 132,
      "max": [
        1.2177799940109253,
        -2.367403984069824,
        0.8988069891929626
      ],
      "min": [
        0.8014010190963745,
        -3.0909149646759033,
        -0.8988069891929626
      ],
      "type": "VEC3"
    },
    {
      "bufferView": 2,
      "byteOffset": 120768,
      "componentType": 5126,
      "count": 132,
      "max": [
        0.882665753364563,
        0.49374088644981384,
        0.7744133472442627
      ],
      "min": [
        0.5535339117050171,
        -0.08645602315664291,
        -0.7744133472442627
      ],
      "type": "VEC3"
    },
    {
      "bufferView": 1,
      "byteOffset": 39728,
      "componentType": 5126,
      "count": 132,
      "max": [
        1.4810789823532104,
        -0.0028989999555051327
      ],
      "min": [
        1.0128480195999146,
        -0.24795499444007874
      ],
      "type": "VEC2"
    },
    {
      "bufferView": 0,
      "byteOffset": 20184,
      "componentType": 5125,
      "count": 132,
      "type": "SCALAR"
    }
  ],
  "asset": {
    "extras": {
      "author": "nguyenlouis32 (https://sketchfab.com/nguyenlouis32)",
      "license": "CC-BY-4.0 (http://creativecommons.org/licenses/by/4.0/)",
      "source": "https://sketchfab.com/3d-models/piplup-5af5786b01384d46aade1a7311f9b1e8",
      "title": "Piplup"
    },
    "generator": "Sketchfab-13.41.0",
    "version": "2.0"
  },
  "bufferViews": [
    {
      "buffer": 0,
      "byteLength": 20712,
      "name": "floatBufferViews",
      "target": 34963
    },
    {
      "buffer": 0,
      "byteLength": 40784,
      "byteOffset": 20712,
      "byteStride": 8,
      "name": "floatBufferViews",
      "target": 34962
    },
    {
      "buffer": 0,
      "byteLength": 122352,
      "byteOffset": 61496,
      "byteStride": 12,
      "name": "floatBufferViews",
      "target": 34962
    }
  ],
  "buffers": [
    {
      "byteLength": 183848,
      "uri": "scene.bin"
    }
  ],
  "images": [
    {
      "uri": "textures/PochamaDh_baseColor.png"
    },
    {
      "uri": "textures/PochamaEyeDh_baseColor.png"
    }
  ],
  "materials": [
    {
      "doubleSided": true,
      "name": "PochamaDh",
      "pbrMetallicRoughness": {
        "baseColorTexture": {
          "index": 0
        },
        "metallicFactor": 0.0,
        "roughnessFactor": 0.6
      }
    },
    {
      "doubleSided": true,
      "name": "PochamaEyeDh",
      "pbrMetallicRoughness": {
        "baseColorTexture": {
          "index": 1
        },
        "metallicFactor": 0.0,
        "roughnessFactor": 0.6
      }
    }
  ],
  "meshes": [
    {
      "name": "Object_0",
      "primitives": [
        {
          "attributes": {
            "NORMAL": 1,
            "POSITION": 0,
            "TEXCOORD_0": 2
          },
          "indices": 3,
          "material": 0,
          "mode": 4
        }
      ]
    },
    {
      "name": "Object_1",
      "primitives": [
        {
          "attributes": {
            "NORMAL": 5,
            "POSITION": 4,
            "TEXCOORD_0": 6
          },
          "indices": 7,
          "material": 1,
          "mode": 4
        }
      ]
    }
  ],
  "nodes": [
    {
      "children": [
        1
      ],
      "matrix": [
        -2.220446049250313e-16,
        -6.661338147750939e-16,
        1.0,
        0.0,
        2.220446049250313e-16,
        -1.0,
        -6.661338147750939e-16,
        0.0,
        1.0,
        2.2204460492503126e-16,
        2.2204460492503136e-16,
        0.0,
        0.0,
        0.0,
        0.0,
        1.0
      ],
      "name": "Sketchfab_model"
    },
    {
      "children": [
        2,
        3
      ],
      "name": "Pochamaout.obj.cleaner.materialmerger.gles"
    },
    {
      "mesh": 0,
      "name": "Object_2"
    },
    {
      "mesh": 1,
      "name": "Object_3"
    }
  ],
  "samplers": [
    {
      "magFilter": 9729,
      "minFilter": 9987,
      "wrapS": 10497,
      "wrapT": 10497
    }
  ],
  "scene": 0,
  "scenes": [
    {
      "name": "Sketchfab_Scene",
      "nodes": [
        0
      ]
    }
  ],
  "textures": [
    {
      "sampler": 0,
      "source": 0
    },
    {
      "sampler": 0,
      "source": 1
    }
  ]
}
