{
  "accessors": [
    {
      "bufferView": 2,
      "componentType": 5126,
      "count": 3870,
      "max": [
        1.2353750467300415,
        0.0059710000641644,
        1.2622079849243164
      ],
      "min": [
        -1.306542992591858,
        -4.349360942840576,
        -1.328752040863037
      ],
      "type": "VEC3"
    },
    {
      "bufferView": 2,
      "byteOffset": 46440,
      "componentType": 5126,
      "count": 3870,
      "max": [
        0.9991262555122375,
        0.9999922513961792,
        0.9999796152114868
      ],
      "min": [
        -0.9885023832321167,
        -0.9990825057029724,
        -0.9999796152114868
      ],
      "type": "VEC3"
    },
    {
      "bufferView": 1,
      "componentType": 5126,
      "count": 3870,
      "max": [
        0.9855350255966187,
        -0.008880999870598316
      ],
      "min": [
        0.015625,
        -0.9847409725189209
      ],
      "type": "VEC2"
    },
    {
      "bufferView": 0,
      "componentType": 5125,
      "count": 3888,
      "type": "SCALAR"
    },
    {
      "bufferView": 2,
      "byteOffset": 92880,
      "componentType": 5126,
      "count": 6,
      "max": [
        0.9568039774894714,
        -0.8610829710960388,
        0.7764350175857544
      ],
      "min": [
        0.637004017829895,
        -1.3010090589523315,
        0.37513700127601624
      ],
      "type": "VEC3"
    },
    {
      "bufferView": 2,
      "byteOffset": 92952,
      "componentType": 5126,
      "count": 6,
      "max": [
        0.8020066618919373,
        0.18993790447711945,
        0.5871632695198059
      ],
      "min": [
        0.7920553684234619,
        0.1669960767030716,
        0.5663117170333862
      ],
      "type": "VEC3"
    },
    {
      "bufferView": 1,
      "byteOffset": 30960,
      "componentType": 5126,
      "count": 6,
      "max": [
        0.4453130066394806,
        -0.011718999594449997
      ],
      "min": [
        0.03125,
        -0.2382809966802597
      ],
      "type": "VEC2"
    },
    {
      "bufferView": 0,
      "byteOffset": 15552,
      "componentType": 5125,
      "count": 6,
      "type": "SCALAR"
    },
    {
      "bufferView": 2,
      "byteOffset": 93024,
      "componentType": 5126,
      "count": 54,
      "max": [
        0.8975149989128113,
        -0.34362301230430603,
        0.3581419885158539
      ],
      "min": [
        0.679885983467102,
        -0.7618920207023621,
        -0.3585059940814972
      ],
      "type": "VEC3"
    },
    {
      "bufferView": 2,
      "byteOffset": 93672,
      "componentType": 5126,
      "count": 54,
      "max": [
        0.9305512309074402,
        0.9286353588104248,
        0.24589693546295166
      ],
      "min": [
        -0.341989129781723,
        0.36055001616477966,
        -0.24585896730422974
      ],
      "type": "VEC3"
    },
    {
      "bufferView": 1,
      "byteOffset": 31008,
      "componentType": 5126,
      "count": 54,
      "max": [
        0.8968200087547302,
        -0.017211999744176865
      ],
      "min": [
        0.09393300116062164,
        -0.23251299560070038
      ],
      "type": "VEC2"
    },
    {
      "bufferView": 0,
      "byteOffset": 15576,
      "componentType": 5125,
      "count": 54,
      "type": "SCALAR"
    }
  ],
  "asset": {
    "extras": {
      "author": "nguyenlouis32 (https://sketchfab.com/nguyenlouis32)",
      "license": "CC-BY-4.0 (http://creativecommons.org/licenses/by/4.0/)",
      "source": "https://sketchfab.com/3d-models/litwick-37afe722c71a4a0d873eeb647f31b3f2",
      "title": "Litwick"
    },
    "generator": "Sketchfab-13.46.0",
    "version": "2.0"
  },
  "bufferViews": [
    {
      "buffer": 0,
      "byteLength": 15792,
      "name": "floatBufferViews",
      "target": 34963
    },
    {
      "buffer": 0,
      "byteLength": 31440,
      "byteOffset": 15792,
      "byteStride": 8,
      "name": "floatBufferViews",
      "target": 34962
    },
    {
      "buffer": 0,
      "byteLength": 94320,
      "byteOffset": 47232,
      "byteStride": 12,
      "name": "floatBufferViews",
      "target": 34962
    }
  ],
  "buffers": [
    {
      "byteLength": 141552,
      "uri": "scene.bin"
    }
  ],
  "images": [
    {
      "uri": "textures/HitomoshiBodyNl_baseColor.png"
    },
    {
      "uri": "textures/HitomoshiEyeNl_baseColor.png"
    },
    {
      "uri": "textures/HitomoshiMouthNl_baseColor.png"
    }
  ],
  "materials": [
    {
      "doubleSided": true,
      "name": "HitomoshiBodyNl",
      "pbrMetallicRoughness": {
        "baseColorTexture": {
          "index": 0
        },
        "metallicFactor": 0.0,
        "roughnessFactor": 0.6
      }
    },
    {
      "doubleSided": true,
      "name": "HitomoshiEyeNl",
      "pbrMetallicRoughness": {
        "baseColorTexture": {
          "index": 1
        },
        "metallicFactor": 0.0,
        "roughnessFactor": 0.6
      }
    },
    {
      "doubleSided": true,
      "name": "HitomoshiMouthNl",
      "pbrMetallicRoughness": {
        "baseColorTexture": {
          "index": 2
        },
        "metallicFactor": 0.0,
        "roughnessFactor": 0.6
      }
    }
  ],
  "meshes": [
    {
      "name": "Object_0",
      "primitives": [
        {
          "attributes": {
            "NORMAL": 1,
            "POSITION": 0,
            "TEXCOORD_0": 2
          },
          "indices": 3,
          "material": 0,
          "mode": 4
        }
      ]
    },
    {
      "name": "Object_1",
      "primitives": [
        {
          "attributes": {
            "NORMAL": 5,
            "POSITION": 4,
            "TEXCOORD_0": 6
          },
          "indices": 7,
          "material": 1,
          "mode": 4
        }
      ]
    },
    {
      "name": "Object_2",
      "primitives": [
        {
          "attributes": {
            "NORMAL": 9,
            "POSITION": 8,
            "TEXCOORD_0": 10
          },
          "indices": 11,
          "material": 2,
          "mode": 4
        }
      ]
    }
  ],
  "nodes": [
    {
      "children": [
        1
      ],
      "matrix": [
        0.007123114541172981,
        1.6653909175682864e-16,
        0.9999746084213257,
        0.0,
        3.885780586188048e-16,
        -1.0,
        8.326672684688674e-16,
        0.0,
        0.9999746084213257,
        -2.7597410700215863e-16,
        -0.007123114541172981,
        0.0,
        0.0,
        0.0,
        0.0,
        1.0
      ],
      "name": "Sketchfab_model"
    },
    {
      "children": [
        2,
        3,
        4
      ],
      "name": "Hitomoshiout.obj.cleaner.materialmerger.gles"
    },
    {
      "mesh": 0,
      "name": "Object_2"
    },
    {
      "mesh": 1,
      "name": "Object_3"
    },
    {
      "mesh": 2,
      "name": "Object_4"
    }
  ],
  "samplers": [
    {
      "magFilter": 9729,
      "minFilter": 9987,
      "wrapS": 10497,
      "wrapT": 10497
    }
  ],
  "scene": 0,
  "scenes": [
    {
      "name": "Sketchfab_Scene",
      "nodes": [
        0
      ]
    }
  ],
  "textures": [
    {
      "sampler": 0,
      "source": 0
    },
    {
      "sampler": 0,
      "source": 1
    },
    {
      "sampler": 0,
      "source": 2
    }
  ]
}
